<svg xmlns="http://www.w3.org/2000/svg" viewBox="0 0 314.18 241.57"><title>pow</title><path d="M38.5,38.71S103.81,104.83,103,55.85c0,0,19.59,31,28.57-4.9,0,0,16.33,39.18,23.67-12.25,0,0,5.71,71,31.84-18.78,0,0-4.9,72.65,47.35,22.86,0,0-28.57,59.81,47.35,31.13,0,0-46.53,46.42,16.33,38.26,0,0-59.48,27,11.43,58,0,0-71.84-13.88-31,27.75,0,0-64.49-40-54.69,18,0,0-40-43.27-41.63,9,0,0-36.73-45.71-49,11.43,0,0-11-60.26-53.88,0,0,0,24.49-59.59-40.82-37.55,0,0,56.33-49-19.59-47.35,0,0,65.31-20.41,5.71-51.43C24.62,99.93,80.13,104,38.5,38.71Z"/><path d="M30.15,32.49S95.45,98.62,94.64,49.64c0,0,19.59,31,28.57-4.9,0,0,16.33,39.18,23.67-12.25,0,0,5.71,71,31.84-18.78,0,0-4.9,72.65,47.35,22.86,0,0-28.57,59.81,47.35,31.13,0,0-46.53,46.42,16.33,38.26,0,0-59.48,27,11.43,58,0,0-71.84-13.88-31,27.75,0,0-64.49-40-54.69,18,0,0-40-43.27-41.63,9,0,0-36.73-45.71-49,11.43,0,0-11-60.26-53.88,0,0,0,24.49-59.59-40.82-37.55,0,0,56.33-49-19.59-47.35,0,0,65.31-20.41,5.71-51.43C16.27,93.72,71.78,97.8,30.15,32.49Z" style="fill:#ffdb00;stroke:#be1622;stroke-miterlimit:10;stroke-width:3px"/></svg>