<svg xmlns="http://www.w3.org/2000/svg" xmlns:xlink="http://www.w3.org/1999/xlink" viewBox="0 0 299 229.48"><defs><linearGradient id="a" x1="21.9" y1="111.23" x2="270.9" y2="111.23" gradientUnits="userSpaceOnUse"><stop offset="0" stop-color="red"/><stop offset="1" stop-color="#f9b233"/></linearGradient></defs><title>Asset 1</title><path d="M78.15,173.87s37.33-22,28.33,23c0,0,13.33-20.33,15.67,2.67,0,0,16-31.67,19,17.33,0,0,24-86,45.67,3.67,0,0-1-68,24.67-22,0,0-2.67-23,10.67-4,0,0-16.67-48.73,32.67-26,0,0-27.67-37-6.33-52.62,0,0-25.67-11.33,15-40,0,0-59.33,11.67-31-33.67,0,0-53,37.67-44-14.67,0,0-39,48-32-19.67,0,0-26.67,55.33-41,6,0,0-18.33,46.33-43.67-4.67,0,0,10,38-15.67,27,0,0,23.8,39.14-11.76,36.24,0,0,60.77,50.76-20.57,58.1,0,0,51.33,11.33,46.33,31.33C70.15,161.87,89.49,152.21,78.15,173.87Z" style="fill:#e30613;stroke:#3b0000;stroke-miterlimit:10;stroke-width:2px"/><path d="M46.15,98.21s37.67-20.67,14-46c0,0,42.33,28.33,23.67-22.67,0,0,34.67,47.67,60.67-8.33,0,0-1.67,67.67,40.33,17.33,0,0-4.67,59.67,45.33,22.67,0,0-17.67,39,18.33,29.67,0,0-42,31.33-6.33,41,0,0-44.67,4.33-24.67,34.33,0,0-25.67-16.33-14,13.33,0,0-31-39.33-25.33,17.33,0,0-24-66-44-2.33,0,0,.33-53.33-28-16.33,0,0,13.67-35-24-27C82.15,151.21,111.49,110.21,46.15,98.21Z" style="fill:#f9b233;stroke:#fff;stroke-miterlimit:10;stroke-width:2px"/><path d="M42.32,77.19l3,9.67,5-11.67,60-9.67,4.67,15,4.33-13.67s46.33-10.67,41.67,20c0,0,19-26.67,34.67,0,0,0,21.33-10.33,27.67,12.33l17.33,6,3.67,13,9.33-11.33,26,8.67L267,175.19l-25.67-8,1-9.33-10,9.33-6-14.33-4,7.67-15.67-8.33s-19,10.33-27-6.67c0,0-15.38,4.19-18.67-4.67,0,0-6.67,13.67-50.67,14L108,146.19l-3.33,9.67L92,156.19l-16.33,8.33-6.33-8.67.33,9L47,170.53S24,105.19,3.65,83.19Z" style="fill:#1d1d1b;stroke:#1d1d1b;stroke-miterlimit:10;stroke-width:2px"/><path d="M41.56,68.92l3,9.67,5-11.67,60-9.67,4.67,15,4.33-13.67s46.33-10.67,41.67,20c0,0,19-26.67,34.67,0,0,0,21.33-10.33,27.67,12.33l17.33,6,3.67,13,9.33-11.33,26,8.67-12.67,59.67-25.67-8,1-9.33-10,9.33-6-14.33-4,7.67-15.67-8.33s-19,10.33-27-6.67c0,0-15.38,4.19-18.67-4.67,0,0-6.67,13.67-50.67,14l-2.33-8.67-3.33,9.67-12.67.33L74.9,156.25l-6.33-8.67.33,9-22.67,5.67S23.23,96.92,2.9,74.92Z" style="fill:#fff;stroke:#1d1d1b;stroke-miterlimit:10;stroke-width:2px"/><path d="M255,106.11,240.4,122.92l-8.17-22-14.67-5.36,0,.2c-1.66-6-5.15-10.43-10-11.7-5.33-1.41-11.12,1.33-15.8,6.72-1.27-8.32-5.35-14.52-11.18-15.68-8.86-1.77-18.44,8.76-21.41,23.53a15.77,15.77,0,0,0-2.21-2.73c-2.7-2.61-9-6.37-12.74-4.59,7.53-5,15.53-16.88,5.54-24-7.9-5.65-21.08-4.31-28.46-.07l-1.11,33.85-13.89-33.5L78.56,72.25l7,62-22.7-22.7,10.33-38-20.33,4L47.56,99.92,39.23,81.58,21.9,86.25c18.33,38.33,26,64,26,64l14-5.67-4.67-16.67,17.33,16.67,16.08-4h8.92l.67-9.33,12.33-1,2.67,6.67,2.25-.3,5.21-.7c1.94-.26,3.88-.5,5.82-.77,1.41-.2,2.83-.33,4.23-.55a51.07,51.07,0,0,0,9.17-2.45c4.23-1.52,8.46-3.08,12.08-5.82a26.29,26.29,0,0,0,2.94-2.6,20.08,20.08,0,0,0,3.32-4.53c2,5.15,5.31,8.73,9.6,9.59,4.55.91,9.28-1.43,13.21-5.9,1.34,7.23,5.08,12.66,10.52,14.1,6.09,1.61,12.78-2.19,17.72-9.18l-1.43,7.38,11.67,5.4,6-13.33,6.27,20.59,14.07-12.66-.67,18.74,13.33,5,10.33-46.81ZM98.56,118.25V96.58l13,21.67Zm34.79-44c3-.7,6.51,1.15,6,4.56-.43,2.71-3.61,5-6.15,5.83,0-3.44-.25-6.89-.22-10.33Zm11.84,36.39c-.4,5.44-5.91,10.48-11.32,11,.16-5.34,0-10.71-.23-16C137.87,105.47,145.75,103,145.19,110.64Zm29.57-.13c-3.22-.64-5-5.52-3.89-10.89s4.55-9.2,7.77-8.56,5,5.52,3.89,10.89S178,111.15,174.77,110.51Zm33,1.92c-1.66,6.31-6.23,10.58-10.2,9.53s-5.84-7-4.18-13.32,6.23-10.58,10.2-9.53S209.43,106.12,207.76,112.43Z" style="stroke:#000;stroke-miterlimit:10;stroke-width:3px;fill:url(#a)"/><path d="M6.31,103.06c.36.33.54.53.78.78l.65.7c.42.47.81.93,1.2,1.4.77.93,1.5,1.88,2.19,2.83,1.4,1.9,2.68,3.84,3.89,5.81a115.53,115.53,0,0,1,6.44,12.09,160.29,160.29,0,0,1,9,25.29,157.73,157.73,0,0,0-13.37-22.79A109.59,109.59,0,0,0,9,119.07c-1.44-1.58-2.92-3.09-4.45-4.52-.76-.71-1.54-1.4-2.32-2-.39-.32-.78-.64-1.17-.93l-.57-.42a4.16,4.16,0,0,0-.47-.31Z"/><path d="M2.08,120.52a25,25,0,0,1,2.1,1.65c.65.56,1.27,1.13,1.88,1.72,1.21,1.17,2.36,2.39,3.47,3.63a84.56,84.56,0,0,1,6.11,7.83,118,118,0,0,1,9.72,17.07,117.17,117.17,0,0,0-11.3-15.85,82.45,82.45,0,0,0-6.67-7c-1.17-1.08-2.38-2.12-3.62-3.09-.62-.49-1.25-1-1.89-1.4A21.73,21.73,0,0,0,0,123.93Z"/><path d="M297,127.84s-.19.17-.29.28l-.37.41c-.25.29-.5.59-.75.9-.5.62-1,1.28-1.46,2-1,1.35-1.86,2.78-2.72,4.25a86.74,86.74,0,0,0-4.66,9.25A126,126,0,0,0,280.12,165,128.58,128.58,0,0,1,282,143.44a93.05,93.05,0,0,1,2.57-10.79c.55-1.79,1.16-3.58,1.87-5.37.36-.89.74-1.79,1.16-2.69.21-.45.43-.9.67-1.36l.38-.7c.15-.25.24-.45.49-.81Z"/><path d="M299,137.73a16.39,16.39,0,0,0-1.23,1.23c-.41.46-.82.93-1.22,1.42-.8,1-1.55,2-2.28,3a65.86,65.86,0,0,0-4,6.61,93.91,93.91,0,0,0-6.05,14.41,94.88,94.88,0,0,1,4.23-15.23,68.49,68.49,0,0,1,3.24-7.33c.62-1.2,1.28-2.37,2-3.53.36-.58.74-1.15,1.14-1.72a19.67,19.67,0,0,1,1.34-1.73Z"/><polygon points="258.4 50.93 242.11 67.43 255.32 48.37 258.4 50.93"/><polygon points="247.83 190.35 234.83 171.15 250.94 187.83 247.83 190.35"/><polygon points="74.95 195.61 91.1 178.97 78.05 198.14 74.95 195.61"/><polygon points="27.46 40.24 42.83 57.61 24.7 43.14 27.46 40.24"/><polygon points="184.16 4.55 170.15 31.87 180.49 2.96 184.16 4.55"/></svg>