<?xml version="1.0" encoding="utf-8"?>
<!-- Generator: Adobe Illustrator 21.0.2, SVG Export Plug-In . SVG Version: 6.00 Build 0)  -->
<svg version="1.1" id="Layer_1" xmlns="http://www.w3.org/2000/svg" xmlns:xlink="http://www.w3.org/1999/xlink" x="0px" y="0px"
	 viewBox="0 0 166.7 197" style="enable-background:new 0 0 166.7 197;" xml:space="preserve">
<style type="text/css">
	.st0{fill:#1D1D1B;}
	.st1{fill:#E6332A;stroke:#1D1D1B;stroke-width:2;stroke-miterlimit:10;}
	.st2{fill:#FFB800;}
</style>
<title>Zap</title>
<path class="st0" d="M159.2,63.8l-14.6,23.6h17.6l-17.6,25.7h17.6l-11.5,4.8l16.1,3.6l-29.2,13.1l14.6,40.9l-27-17.1l1.5,37.6
	l-26-33.1l-5,25.6l-13.8-25.6l-15,24.1v-28.6l-32.6,15.1L50,147.3l-15.8,4.2l19-16.8H26.7l18.1-4.8l-24.6-8.4c0,0,30.1-0.5-7.5-34.2
	c0,0,35.1,17.5,0-37.7c0,0,48.2,34.1,10-35.1c0,0,37.6,41.7,41.2,0c0,0,24.3,52.2,31.7,0c0,0,8.4,41.7,27.5-6.5
	c0,0-2.5,62.7,27.6,23.1C150.6,31.2,137.1,69.8,159.2,63.8z"/>
<path class="st1" d="M152.7,61.5l-14.6,23.6h17.6l-17.6,25.7h17.6l-11.5,4.8l16.1,3.6l-29.2,13.1l14.6,40.9l-27-17.1l1.5,37.6
	l-26-33.1l-5,25.6l-13.7-25.6L60.4,185v-28.6l-32.6,15L43.6,145l-15.8,4.2l19-16.8H20.2l18.1-4.7l-24.6-8.4c0,0,30.1-0.5-7.5-34.2
	c0,0,35.1,17.5,0-37.7c0,0,48.2,34.1,10-35.1c0,0,37.6,41.7,41.2,0c0,0,24.3,52.2,31.7,0c0,0,8.4,41.7,27.5-6.5
	c0,0-2.5,62.7,27.6,23.1C144.2,28.9,130.6,67.5,152.7,61.5z"/>
<path class="st2" d="M128.9,74.5L120,88.9h10.7L120,104.6h10.7l-7.1,3l9.8,2.2l-17.8,8l8.9,25l-16.5-10.4l0.9,23l-15.9-20.3
	l-3.1,15.6l-8.4-15.6l-9.2,14.7v-17.5l-19.9,9.2l9.7-16.1l-9.7,2.6l11.6-10.3H48l11-2.9l-15-5.1c0,0,18.4-0.3-4.6-20.9
	c0,0,21.5,10.7,0-23c0,0,29.4,20.8,6.1-21.5c0,0,23,25.4,25.1,0c0,0,14.9,31.9,19.4,0c0,0,5.1,25.4,16.8-4c0,0-1.5,38.3,16.9,14.1
	C123.7,54.5,115.4,78.2,128.9,74.5z"/>
</svg>
