<svg xmlns="http://www.w3.org/2000/svg" viewBox="0 0 166.68 197.04"><title>Zap</title><path d="M159.16,63.8,144.6,87.45h17.56L144.6,113.16h17.56L150.63,118l16.06,3.63-29.16,13.13,14.58,40.94-27-17.06,1.52,37.63-26-33.12-5,25.59L81.88,163.15,66.83,187.23v-28.6L34.21,173.69,50,147.31l-15.8,4.24,19-16.8H26.69L44.75,130l-24.59-8.42s30.11-.48-7.53-34.16c0,0,35.12,17.49,0-37.7,0,0,48.17,34.12,10-35.12,0,0,37.63,41.65,41.15,0,0,0,24.35,52.18,31.74,0,0,0,8.36,41.65,27.45-6.52,0,0-2.49,62.72,27.62,23.08C150.63,31.18,137.08,69.82,159.16,63.8Z" style="fill:#1d1d1b"/><path d="M152.71,61.52,138.16,85.17h17.56l-17.56,25.71h17.56l-11.54,4.83,16.06,3.63-29.16,13.13,14.58,40.94-27-17.06L120.17,194l-26-33.12-5,25.59L75.44,160.87,60.38,185v-28.6L27.77,171.41,43.57,145l-15.81,4.24,19-16.8H20.24l18.06-4.72-24.59-8.42s30.11-.48-7.53-34.16c0,0,35.12,17.49,0-37.7,0,0,48.17,34.12,10-35.12,0,0,37.63,41.65,41.15,0,0,0,24.35,52.18,31.74,0,0,0,8.36,41.65,27.45-6.52,0,0-2.49,62.72,27.62,23.08C144.18,28.9,130.63,67.54,152.71,61.52Z" style="fill:#e6332a;stroke:#1d1d1b;stroke-miterlimit:10;stroke-width:2px"/><path d="M128.92,74.47,120,88.92h10.73L120,104.62h10.73l-7.05,3,9.81,2.22-17.81,8,8.91,25-16.5-10.42.93,23L93.15,135.16,90.07,150.8l-8.36-15.63-9.2,14.71V132.4l-19.92,9.2,9.66-16.11-9.66,2.59,11.6-10.26H48l11-2.88-15-5.14s18.39-.29-4.6-20.87c0,0,21.46,10.69,0-23,0,0,29.43,20.84,6.13-21.46,0,0,23,25.44,25.14,0,0,0,14.87,31.88,19.39,0,0,0,5.11,25.44,16.77-4,0,0-1.52,38.32,16.87,14.1C123.71,54.54,115.43,78.15,128.92,74.47Z" style="fill:#ffb800"/><path d="M132.41,99.55l2.25-31.95-15.71,4-.09-2.5-15.38,5.47.74,5.63A10.9,10.9,0,0,0,97.17,77a14.16,14.16,0,0,0-8.78,2.71,19.55,19.55,0,0,0-3.11,2.79c-.52.57-1,1.19-1.51,1.85-.24.33-.48.66-.71,1l-.07.09c-.6.79-1.43,1.85-.89,3.17l.84,2.05,2.44,5.94a48.39,48.39,0,0,1-4.52-7.57l-1.38-3.25L63.58,97.21l1.08,1.89c.1.18,1.13,2,2.6,5l-4.94-6.21L43.57,117l9.94,10.77L59.44,121l.17,18.61,8.77,9.62,18.08-17.12-.44-.7,2.76-2.52.39.77,7.31-6,.38.91,11-11.13-5.17-12.19c.41-.66.81-1.36,1.19-2.07a33.37,33.37,0,0,0,2.17-4.89l.74,5.68,12.84,1.15a7.14,7.14,0,0,0-.92,1.35,8.33,8.33,0,0,0-7.36-1.37,7.2,7.2,0,0,0-4.69,9.53,8.37,8.37,0,0,0,10.13,5,7.2,7.2,0,0,0,4.31-3.49c.17.13.35.25.52.36a8.16,8.16,0,0,0,6.07,1.15c.23,0,.47-.11.69-.18a7.25,7.25,0,0,0,5-8.88,8,8,0,0,0-3.49-4.76,8.15,8.15,0,0,0-6.07-1.14,7.57,7.57,0,0,0-3.84,2l-.12-3.49ZM74.89,123l-3.61,3.48.19-12.89C72.62,116.48,73.8,119.65,74.89,123Z" style="fill:#1d1d1b"/><path d="M77.72,89.58l-11.11,8a141.93,141.93,0,0,1,13.32,34.93l6.23-5.68L84,121.35l2.8-1.72,2.75,5.43,8.67-7.15S81.16,97.67,77.72,89.58Zm6.42,23.69L81,115.56C80.82,112,74,99.07,74,99.07Z" style="fill:#ffde00"/><path d="M96.51,79.19a11.1,11.1,0,0,0-6.92,2.19,16.83,16.83,0,0,0-2.68,2.41c-.48.53-.93,1.09-1.35,1.65-.23.32-.46.63-.68,1-.1.15-.73.9-.67,1l13.09,31.89,6.8-6.87-5-11.88c0-.1.47-.71.52-.8.44-.71.86-1.43,1.26-2.16a27.67,27.67,0,0,0,2.68-6.8A10.79,10.79,0,0,0,103,83.4,7.89,7.89,0,0,0,96.51,79.19ZM95.4,95.58l-3.61-8.71C100.19,81.59,95.4,95.58,95.4,95.58Z" style="fill:#ffde00"/><polygon points="108.78 97.22 116.56 97.92 115.67 72.43 105.99 75.87 108.78 97.22" style="fill:#ffde00"/><path d="M118.32,106.54a4.71,4.71,0,0,1-3,6.29,5.47,5.47,0,0,1-6.57-3.39,4.71,4.71,0,0,1,3-6.29A5.47,5.47,0,0,1,118.32,106.54Z" style="fill:#ffde00"/><polygon points="121.61 94.69 129.29 96.07 131.08 70.65 121.07 73.21 121.61 94.69" style="fill:#ffde00"/><path d="M130.13,104.79a4.77,4.77,0,0,1-3.61,6,5.38,5.38,0,0,1-6.19-4,4.78,4.78,0,0,1,3.61-6A5.39,5.39,0,0,1,130.13,104.79Z" style="fill:#ffde00"/><polygon points="46.76 116.71 52.91 123.37 61.64 113.41 61.87 138.34 67.98 145.04 82.45 131.33 77.43 123.42 67.86 132.65 68.19 109.9 61.59 101.6 46.76 116.71" style="fill:#ffde00"/></svg>